<svg width="60" height="60" viewBox="0 0 60 60" fill="none" xmlns="http://www.w3.org/2000/svg">
<g clip-path="url(#clip0_30_74)">
<path d="M59.6126 7.52011C58.5701 6.18761 56.7476 7.25511 55.9451 7.72011C50.2351 11.0851 49.3926 17.0101 47.4026 20.4126C45.8376 23.1376 43.2726 25.1376 40.9526 25.2926C39.2376 25.4151 37.3776 25.0826 35.5326 24.2801C31.0151 22.3276 28.5826 19.8001 27.9901 19.3551C26.7726 18.4301 17.4151 9.31761 9.79011 8.94511C9.79011 8.94511 8.86011 7.07011 8.62761 7.03761C8.07261 6.97511 7.50261 8.16511 7.08761 8.29011C6.71261 8.42261 6.05511 7.01011 5.67511 7.07261C5.29261 7.12261 4.92011 8.53761 4.17511 9.26511C3.62511 9.79761 2.96011 9.76511 2.58261 10.4226C2.45261 10.6626 2.49761 11.0851 2.35011 11.4726C2.03261 12.2726 0.972608 12.3576 0.962608 13.2151C0.962608 14.1676 1.85511 14.3501 2.63511 15.0151C3.25511 15.5451 3.29761 15.9201 4.02011 16.1676C4.66511 16.3876 5.60011 15.7001 6.43011 15.9476C7.12261 16.1501 7.78761 16.2976 7.93511 17.0051C8.07011 17.6451 7.93511 18.6501 7.08511 18.5376C6.80511 18.5001 5.59011 18.1026 4.09011 18.2626C2.27761 18.4551 0.207608 19.0351 0.005108 21.0376C-0.097392 22.1551 1.29011 23.4626 2.64261 23.2026C3.57011 23.0251 3.13261 21.9376 3.64011 21.4126C4.30761 20.7376 8.07011 23.7726 11.5701 23.7726C13.0526 23.7726 14.1476 23.3976 15.2376 22.2601C15.3376 22.1876 15.4701 22.0051 15.6251 21.9851C15.7989 22.0302 15.9638 22.1046 16.1126 22.2051C18.9401 24.4476 21.0726 28.9551 31.4376 29.0076C32.8926 29.0251 34.5626 29.7051 35.9276 30.9501C37.1276 32.0326 37.8376 33.7626 38.5201 35.5126C39.5651 38.1451 41.4226 40.6851 44.2501 43.5201C44.4001 43.6901 46.7251 45.4701 46.9001 45.6026C46.9301 45.6276 47.1101 46.0201 47.0326 46.2401C46.9826 47.9651 46.7251 52.9151 50.4451 53.1226C51.3601 53.1726 51.1326 52.5451 51.1326 52.0976C51.1201 51.2451 50.9701 50.3851 51.4151 49.4976C52.0476 48.3026 50.1001 47.7251 50.1426 45.1076C50.1901 43.1476 48.5301 43.4801 47.6826 41.9826C47.2076 41.1251 46.7626 40.6526 46.8076 39.6176C46.9901 33.6676 45.5151 29.7476 44.7951 28.8001C44.2276 28.0651 43.7376 27.7926 44.2776 27.4501C47.3776 25.4126 48.0901 23.5151 48.0901 23.5151C49.7401 19.6626 51.2301 16.1526 53.2776 14.5901C53.6926 14.2901 54.7501 13.4901 55.4076 13.1901C57.3151 12.2851 58.3401 11.7451 58.8776 11.2201C59.7676 10.3776 60.4651 8.58761 59.6126 7.52011Z" fill="black"/>
</g>
<defs>
<clipPath id="clip0_30_74">
<rect width="60" height="60" fill="white"/>
</clipPath>
</defs>
</svg>
