<svg width="60" height="60" viewBox="0 0 60 60" fill="none" xmlns="http://www.w3.org/2000/svg">
<path d="M21.84 20.1201C20.385 20.1201 19.2525 21.2976 19.2525 22.7551L19.31 37.2426C19.31 38.6976 20.4225 39.8776 21.8825 39.8776H22.1825C23.64 39.8776 24.8175 38.6976 24.8175 37.2426L24.76 22.7551C24.76 21.2976 23.58 20.1201 22.1225 20.1201H21.84ZM29.5175 20.1376C28.0825 20.1376 26.9175 21.3076 26.9175 22.7476V35.8476C26.9175 37.8101 28.85 39.7026 30.77 39.7026H40.915C42.3575 39.7026 43.3275 38.6526 44.145 37.2151L49.425 28.1601C49.47 28.0601 49.5575 27.9351 49.6575 27.9351C49.7675 27.9351 49.8325 28.0601 49.8875 28.1551L53.34 33.6951C53.485 33.9301 53.51 34.0476 53.42 34.2576C53.34 34.4501 53.1475 34.4901 52.845 34.4901H47.9975C46.5525 34.4901 45.3875 35.6576 45.3875 37.1001V37.2626C45.3875 38.7051 46.5525 39.7026 47.9975 39.7026H55.905C57.83 39.7026 60 37.8726 60 35.4776C60 33.9601 59.705 33.4226 58.44 31.3651L52.585 21.8301C51.8975 20.7251 50.96 20.1901 49.7775 20.1901C48.5525 20.1901 47.5175 20.7626 46.87 21.8301L40.09 33.0701C39.6275 33.8401 39.095 34.1551 38.215 34.1551H33.17C33.0759 34.1586 32.9821 34.1427 32.8945 34.1084C32.8068 34.0742 32.7271 34.0223 32.6603 33.9559C32.5935 33.8896 32.541 33.8103 32.5061 33.7228C32.4712 33.6354 32.4547 33.5417 32.4575 33.4476L32.4625 22.7476C32.4625 21.3076 31.2925 20.1376 29.8525 20.1376H29.5175ZM2.6375 20.4951C1.1825 20.4951 0 21.6101 0 23.0651V23.2501C0 24.7101 1.1825 25.8876 2.6375 25.8876H14.975C16.4275 25.8876 17.6125 24.7101 17.6125 23.2501V23.0851C17.6112 22.7413 17.5418 22.4012 17.4082 22.0845C17.2746 21.7677 17.0795 21.4806 16.8342 21.2397C16.5889 20.9989 16.2983 20.809 15.9792 20.6812C15.6601 20.5534 15.3187 20.4902 14.975 20.4951H2.6375ZM3.105 27.5426C1.295 27.5426 0.0025 28.9626 0.0025 30.6451L0 37.2751C0 38.7176 1.1675 39.8801 2.605 39.8801H2.94C3.28228 39.8808 3.62132 39.8138 3.93767 39.6832C4.25402 39.5525 4.54145 39.3606 4.78348 39.1186C5.02551 38.8766 5.21737 38.5891 5.34805 38.2728C5.47873 37.9564 5.54566 37.6174 5.545 37.2751V33.6301C5.545 33.2376 5.86 32.9201 6.2525 32.9201H13.7C15.1375 32.9201 16.3075 31.7576 16.3075 30.3151V30.1501C16.3075 28.7101 15.1375 27.5426 13.7 27.5426H3.105Z" fill="black"/>
</svg>
