<svg width="60" height="60" viewBox="0 0 60 60" fill="none" xmlns="http://www.w3.org/2000/svg">
<g clip-path="url(#clip0_30_72)">
<path d="M60.0015 19.5L16.1065 38.19C12.4665 39.73 9.40899 40.5025 6.93649 40.5025C4.13649 40.5025 2.10399 39.5225 0.843988 37.56C0.0514877 36.3 -0.181012 34.7025 0.143988 32.765C0.468988 30.8275 1.33399 28.765 2.73399 26.57C3.90149 24.795 5.81399 22.4625 8.47649 19.57C7.5734 20.9917 6.91116 22.5526 6.51649 24.19C5.81649 27.1775 6.44649 29.37 8.40649 30.77C9.33899 31.4225 10.6215 31.75 12.2565 31.75C13.5615 31.75 15.0315 31.54 16.6665 31.12L60.0015 19.5Z" fill="black"/>
</g>
<defs>
<clipPath id="clip0_30_72">
<rect width="60" height="60" fill="white"/>
</clipPath>
</defs>
</svg>
