<svg width="60" height="60" viewBox="0 0 60 60" fill="none" xmlns="http://www.w3.org/2000/svg">
<g clip-path="url(#clip0_30_59)">
<path d="M29.84 44.8801C29.84 43.2701 31.1325 41.9801 32.745 41.9801C34.355 41.9801 35.645 43.2701 35.645 44.8801C35.6463 45.2614 35.5722 45.6393 35.427 45.9918C35.2817 46.3444 35.0682 46.6648 34.7987 46.9346C34.5292 47.2043 34.209 47.4181 33.8565 47.5636C33.5041 47.7092 33.1263 47.7836 32.745 47.7826C32.3635 47.7843 31.9854 47.7104 31.6325 47.5653C31.2796 47.4202 30.959 47.2068 30.6889 46.9372C30.4189 46.6677 30.2049 46.3473 30.0592 45.9947C29.9135 45.6421 29.839 45.2641 29.84 44.8826M41.65 44.8826C41.65 43.2701 42.9425 41.9776 44.5525 41.9776C46.1625 41.9776 47.455 43.2701 47.455 44.8801C47.455 46.4901 46.1625 47.7826 44.555 47.7826C44.1735 47.7843 43.7954 47.7104 43.4425 47.5653C43.0896 47.4202 42.769 47.2068 42.4989 46.9372C42.2289 46.6677 42.0149 46.3473 41.8692 45.9947C41.7235 45.6421 41.649 45.2641 41.65 44.8826M14.275 44.8826C14.275 43.2701 15.5675 41.9776 17.1775 41.9776C18.7875 41.9776 20.0775 43.2701 20.0775 44.8801C20.0775 46.4901 18.7875 47.7826 17.1775 47.7826C16.7962 47.7839 16.4184 47.7098 16.0658 47.5646C15.7132 47.4194 15.3928 47.2058 15.1231 46.9363C14.8533 46.6668 14.6395 46.3466 14.494 45.9942C14.3484 45.6417 14.274 45.2639 14.275 44.8826M2.465 44.8826C2.465 43.2701 3.7575 41.9776 5.3675 41.9776C6.9775 41.9776 8.27 43.2701 8.27 44.8801C8.27132 45.2616 8.19715 45.6397 8.05175 45.9924C7.90636 46.3452 7.69261 46.6657 7.42282 46.9354C7.15304 47.2052 6.83254 47.419 6.4798 47.5644C6.12706 47.7098 5.74903 47.7839 5.3675 47.7826C4.98639 47.7836 4.60884 47.7093 4.25655 47.5639C3.90426 47.4185 3.58417 47.2049 3.31468 46.9354C3.0452 46.6659 2.83162 46.3459 2.68623 45.9936C2.54085 45.6413 2.46651 45.2637 2.4675 44.8826M26.3425 39.7526H23.8175V49.9101H26.3425V39.7526ZM8.25 49.9101H10.775V39.7526H8.25V40.5676C7.36984 39.9551 6.32232 39.6286 5.25 39.6326C2.345 39.6326 0 41.9776 0 44.8826C0 47.8026 2.345 50.1301 5.25 50.1301C6.3625 50.1301 7.395 49.7926 8.25 49.1951V49.9101V49.9101ZM47.435 49.9101H49.96V39.7526H47.435V40.5676C46.5548 39.9551 45.5073 39.6286 44.435 39.6326C41.53 39.6326 39.185 41.9776 39.185 44.8826C39.1827 45.5726 39.3169 46.2562 39.58 46.8941C39.843 47.5319 40.2297 48.1114 40.7177 48.5992C41.2057 49.087 41.7854 49.4734 42.4234 49.7361C43.0614 49.9989 43.745 50.1328 44.435 50.1301C45.5475 50.1301 46.58 49.7926 47.435 49.1951V49.9101V49.9101ZM50.895 46.6101C50.975 48.6601 52.725 50.1101 55.645 50.1101C58.0325 50.1101 60 49.0751 60 46.7901C60 45.2001 59.105 44.2651 57.0375 43.8651L55.4275 43.5501C54.3925 43.3501 53.6775 43.1501 53.6775 42.5351C53.6775 41.8601 54.3725 41.5601 55.2475 41.5601C56.5225 41.5601 57.0375 42.1976 57.0775 42.9526H59.6225C59.4825 40.9651 57.8925 39.6326 55.3275 39.6326C52.685 39.6326 51.1125 41.0826 51.1125 42.9726C51.1125 45.2776 52.9825 45.6551 54.5925 45.9551L55.925 46.1926C56.88 46.3726 57.2975 46.6501 57.2975 47.2076C57.2975 47.7051 56.82 48.2001 55.685 48.2001C54.035 48.2001 53.5 47.3451 53.48 46.6101H50.895V46.6101ZM20.06 36.2926V40.5676C19.1798 39.9551 18.1323 39.6286 17.06 39.6326C14.155 39.6326 11.81 41.9776 11.81 44.8826C11.81 47.8026 14.155 50.1301 17.06 50.1301C18.17 50.1301 19.205 49.7926 20.06 49.1951V49.9101H22.585V36.2926H20.06V36.2926ZM35.625 36.2926V40.5676C34.7448 39.9551 33.6973 39.6286 32.625 39.6326C29.7225 39.6326 27.375 41.9776 27.375 44.8826C27.3727 45.5726 27.5069 46.2562 27.77 46.8941C28.033 47.5319 28.4197 48.1114 28.9077 48.5992C29.3957 49.087 29.9754 49.4734 30.6134 49.7361C31.2514 49.9989 31.935 50.1328 32.625 50.1301C33.7375 50.1301 34.77 49.7926 35.625 49.1951V49.9101H38.15V36.2926H35.625V36.2926ZM6.56 33.2926L8.27 36.2926H20.06L15.3875 28.2201L6.5625 33.2901L6.56 33.2926ZM26.3425 38.8176V36.2926H35.625L25.725 19.1551L16.8775 24.2251L23.8175 36.2926V38.8176H26.3425V38.8176ZM39.385 36.2926H51.1925L35.925 9.87012L27.0975 14.9601L39.385 36.2926V36.2926Z" fill="black"/>
</g>
<defs>
<clipPath id="clip0_30_59">
<rect width="60" height="60" fill="white"/>
</clipPath>
</defs>
</svg>
